<?xml version="1.0" encoding="utf-8"?>
<!-- Generator: Adobe Illustrator 19.0.0, SVG Export Plug-In . SVG Version: 6.00 Build 0)  -->
<svg version="1.1" id="Warstwa_1" xmlns="http://www.w3.org/2000/svg" xmlns:xlink="http://www.w3.org/1999/xlink" x="0px" y="0px"
	 viewBox="0 0 100 100" style="enable-background:new 0 0 100 100;" xml:space="preserve">
<style type="text/css">
	.st0{fill:#FFFFFF;stroke:#FFFFFF;stroke-miterlimit:10;}
	.st1{stroke:#000000;stroke-miterlimit:10;}
	.st2{fill:#FFFFFF;stroke:#000000;stroke-miterlimit:10;}
	.st3{fill:#282828;stroke:#000000;stroke-miterlimit:10;}
	.st4{fill:none;stroke:#FFFFFF;stroke-miterlimit:10;}
	.st5{fill:#FFFFFF;stroke:#FEFEFE;stroke-miterlimit:10;}
	.st6{font-family:'Playbill';}
	.st7{font-size:19.3958px;}
</style>
<path id="XMLID_1_" class="st0" d="M17.9,73.8h69.2V29.2h-66c-4.9,0-8.9,4-8.9,8.9v30C12.2,71.3,14.7,73.8,17.9,73.8z"/>
<circle id="XMLID_2_" class="st1" cx="58.3" cy="52.2" r="17.5"/>
<path id="XMLID_3_" class="st0" d="M68.3,29.3H83v-6.6c0-1.5-1.2-2.7-2.7-2.7h-9.4c-1.5,0-2.7,1.2-2.7,2.7L68.3,29.3L68.3,29.3z"/>
<path class="st0" d="M57.8,16.1H41.5l-1,13.2h18.3L57.8,16.1z M54.4,27.1h-9.6v-8.7h9.6V27.1z"/>
<path id="XMLID_6_" class="st2" d="M17.5,73.9h14.3V31.1c0-3.5-2.9-6.4-6.4-6.4h-4.7c-4.9,0-8.9,4-8.9,8.9v34.6
	C11.9,71.3,14.4,73.9,17.5,73.9z"/>
<circle id="XMLID_7_" class="st3" cx="58.2" cy="51.9" r="14.6"/>
<circle id="XMLID_8_" class="st1" cx="58.5" cy="52.5" r="7"/>
<path id="XMLID_9_" class="st4" d="M63.5,55c0,0,1.2-3.3,0-5.8"/>
<text id="XMLID_15_" transform="matrix(2.0663 2.000915e-002 -9.683044e-003 1 14.3752 90.7694)" class="st5 st6 st7">PHOTOS</text>
</svg>
