<?xml version="1.0" encoding="utf-8"?>
<!-- Generator: Adobe Illustrator 19.0.0, SVG Export Plug-In . SVG Version: 6.00 Build 0)  -->
<svg version="1.1" id="Warstwa_1" xmlns="http://www.w3.org/2000/svg" xmlns:xlink="http://www.w3.org/1999/xlink" x="0px" y="0px"
	 viewBox="0 0 100 100" style="enable-background:new 0 0 100 100;" xml:space="preserve">
<style type="text/css">
	.st0{fill:#FFFFFF;stroke:#000000;stroke-miterlimit:10;}
	.st1{stroke:#000000;stroke-miterlimit:10;}
	.st2{fill:#282828;stroke:#000000;stroke-miterlimit:10;}
	.st3{fill:none;stroke:#FFFFFF;stroke-miterlimit:10;}
	.st4{fill:none;}
	.st5{font-family:'Playbill';}
	.st6{font-size:19.3375px;}
</style>
<path id="XMLID_1_" class="st0" d="M18.6,80.4h69.2V35.8h-66c-4.9,0-8.9,4-8.9,8.9v30C12.9,77.9,15.4,80.4,18.6,80.4z"/>
<circle id="XMLID_2_" class="st1" cx="59" cy="58.8" r="17.5"/>
<path id="XMLID_3_" class="st0" d="M69,35.9h14.7v-6.6c0-1.5-1.2-2.7-2.7-2.7h-9.4c-1.5,0-2.7,1.2-2.7,2.7V35.9z"/>
<polygon id="XMLID_4_" class="st0" points="41.2,35.9 59.5,35.9 58.5,22.7 42.2,22.7 "/>
<rect id="XMLID_5_" x="45.5" y="25" class="st0" width="9.6" height="8.7"/>
<path id="XMLID_6_" class="st0" d="M18.2,80.5h14.3V37.7c0-3.5-2.9-6.4-6.4-6.4h-4.7c-4.9,0-8.9,4-8.9,8.9v34.6
	C12.6,77.9,15.1,80.5,18.2,80.5z"/>
<circle id="XMLID_7_" class="st2" cx="58.9" cy="58.5" r="14.6"/>
<circle id="XMLID_8_" class="st1" cx="59.2" cy="59.1" r="7"/>
<path id="XMLID_9_" class="st3" d="M64.2,61.6c0,0,1.2-3.3,0-5.8"/>
<rect id="XMLID_10_" x="28.3" y="82.7" class="st4" width="77.9" height="12.9"/>
<rect id="XMLID_13_" x="27.8" y="84.6" class="st4" width="55.1" height="2.3"/>
<text id="XMLID_15_" transform="matrix(2.1069 0 0 1 12.5566 96.6269)" class="st5 st6">PHOTOS</text>
</svg>
