<?xml version="1.0" encoding="utf-8"?>
<!-- Generator: Adobe Illustrator 19.0.0, SVG Export Plug-In . SVG Version: 6.00 Build 0)  -->
<svg version="1.1" id="Warstwa_1" xmlns="http://www.w3.org/2000/svg" xmlns:xlink="http://www.w3.org/1999/xlink" x="0px" y="0px"
	 viewBox="0 0 100 100" style="enable-background:new 0 0 100 100;" xml:space="preserve">
<style type="text/css">
	.st0{fill:#FAE0BC;}
</style>
<g id="XMLID_1_">
	<g id="XMLID_27_">
		<g id="XMLID_31_">
			<g id="XMLID_32_">
				<g id="XMLID_33_">
					<path id="XMLID_45_" class="st0" d="M68.5,39.8c0.2-0.3-0.1-0.8-0.3-1.2L68,39.9L68.5,39.8z"/>
					<path id="XMLID_44_" class="st0" d="M67.5,39.5L67,40.8l0.4-0.6c0.4,0.6,0,1.4-0.1,1.6C67.9,41.5,67.4,40.3,67.5,39.5z"/>
					<path id="XMLID_43_" class="st0" d="M66.5,40.6c-0.3-0.1-0.2,0.8-0.1,1C66.4,41.2,66.6,40.8,66.5,40.6z"/>
					<path id="XMLID_42_" class="st0" d="M45.9,36.5c0.1,0.2,0.2,0.3,0.1,0.5C46.2,36.8,46.3,36.6,45.9,36.5z"/>
					<path id="XMLID_41_" class="st0" d="M46.1,37.1c0,0,0,0.1-0.1,0.1C46,37.2,46.1,37.2,46.1,37.1C46.1,37.1,46.1,37.1,46.1,37.1z
						"/>
					<path id="XMLID_40_" class="st0" d="M52.4,47.5c0.4-0.6,0.6-0.2,1-0.5l0.2,1c0.4-0.3,0.2-0.9,0.5-1.4c0.3,0.7,1.1,0.1,1.3,0.1
						c0.1,0.5-0.2,0.7-0.2,0.9c0.5-0.3,0.5-1.3,1-1.3l0,0.3c1.4-1.5,3.1-1.1,4.7-2c-0.1-0.1-0.1-0.3-0.1-0.5c1.6-0.4,3.5-0.5,4.6-3
						c-0.9,0.3-2.3-1.3-3.2,0.5c-0.3-0.7-0.8,0.3-1-0.7c-1.2-0.5-1.7,1.4-3,1.4c-0.2-0.2-0.1-0.7-0.1-1.2l0.9-0.5l-0.6-0.4
						c0.3-0.5,0.9-0.1,0.9-1.1c-0.8,1.1-2.1,0.2-2.9,1.5c0.3,0.2,0.8,0,1.2,0.1c0.2,0.3,0.4,0.6,0.4,1.1c-1.2,1.4-2.1,0.7-3.3,1.1
						c-0.3,0.1-0.7,0-0.7-0.5c0.2-0.2,0.1-0.6,0.2-0.8c-0.4,0.4-0.1,1.8-0.7,1.6l0.1-1.7c-0.3,1.8-0.7-0.3-1.2,0.7
						c-0.1-0.7,0.2-1.1,0.5-1.1c-0.4-0.3-0.4,0.7-0.7,0.6l0.3-1.5c-0.4,1.4-0.6-0.3-0.7-0.8c0,0.4,0.1,1.5-0.3,1.4
						c-0.2-0.2-0.1-0.6-0.1-0.8c0,0.4-0.2,1-0.5,1c0-0.5,0.2-0.7,0.2-1.2c-0.2,0-0.4,0.1-0.5-0.3c-0.4,0.4,0,0.7-0.2,1.2
						c-0.5-0.4,0-1.7-0.1-2.7c0.4-0.7,1-0.9,1.2-1.2l-0.8,0.4c0.1-0.6-0.5-1,0-1.5c-0.7-0.6-1.7,0-2.4,0.4c0.1,0.2,0.2,0.3,0.2,0.7
						c-0.4,0.3-0.3-0.4-0.4-0.8c-0.3,0.4-0.3,1.4-0.6,2.1c-0.5-0.9-0.6-0.4-1.1-1.6l0,1c-0.3-0.8-0.5,0.7-0.8,0.1
						c0-0.2,0.2-0.5,0.3-0.7c-0.4,0.3-0.2-0.9-0.6-0.5l0.3-1.1c-0.3,0-0.7,0.3-0.5-0.6c-0.5,1.1-1.3,0.6-1.9,1.2l0.1-0.8
						c-0.4,1-1.1-0.1-1.4,1.1l0-0.4l-0.7,1.1c-0.3-0.1,0-1.4-0.1-1c-0.6,0.2-1.1,0.2-1.4-0.3c-0.2,1.1-0.9,1.4-1.4,1.5
						c-2.2-1-4.9-0.2-7.2,0.7c-0.3,0-1,1.2-1.5,1.7c0.5,0.4,0.6-0.2,1.1-0.1c0.3,0.4,0.3,1.5,0.5,2.3l0-1c0.6-0.7,0.3,0.6,0.8-0.3
						L32,42.1c0.3-0.8,0.5-0.1,0.6,0.3l0.3-1.1c0.2,0.6,0.4,0.9,0.4,1.9l0.1-1c0,0.6,1.2,0.1,0.6,1.7c0.1-0.2,0.3-0.7,0.5-0.6
						l-0.1,1c0.3-0.2,0.7-0.4,0.7,0.2c-0.2,0.2-0.3,0.6-0.4,1.1c1.2,0.3,0.7-3.2,1.8-3.1l-0.1,0.6l0.4-0.6l0.2,0.8
						c0.6-2.1,1.5,0.4,2.3-0.7c0.3-0.2,0.5,1.2,1,1.1l0.1-1c0.3,1,1.7,1.8,1.9,4.1c0.5-0.7,0-0.2,0.1-1c0.8-1,0.8,0.6,1.1,1.2
						c0.5-0.5-0.3-0.4,0-1.1c0.6,0.8,0.7-1.2,1.5-0.4c0,0.6-0.3,0.4-0.4,0.7c0.7-1,1.8-0.3,2.7-0.4c1,0.8,2.5,1.1,3.7,2.1l0-0.4
						c0.5,0.9,1.1,0.1,1.6,0.5L52.4,47.5z"/>
					<path id="XMLID_39_" class="st0" d="M59.7,38.3l-0.1-0.8l-0.5,0.6C59.3,38.7,59.4,38.2,59.7,38.3z"/>
					<polygon id="XMLID_38_" class="st0" points="59.6,40.9 59.9,40.5 59.4,40.6 					"/>
					<polygon id="XMLID_37_" class="st0" points="52.7,39.5 52.8,39.6 53.8,38.9 					"/>
					<path id="XMLID_36_" class="st0" d="M46,35.7c0.1-0.4,0.3-0.2,0.4-0.5L46,35.5L46,35.7z"/>
					<path id="XMLID_35_" class="st0" d="M41.8,31.9c-0.3,1.5-0.3-0.1-0.2,1.3C41.9,33,41.7,32.4,41.8,31.9z"/>
					<path id="XMLID_34_" class="st0" d="M40.6,34c0.2,0.1,0.3-0.2,0.4-0.4C40.8,32.9,40.7,33.7,40.6,34z"/>
				</g>
			</g>
		</g>
	</g>
</g>
</svg>
