<?xml version="1.0" encoding="utf-8"?>
<!-- Generator: Adobe Illustrator 19.0.0, SVG Export Plug-In . SVG Version: 6.00 Build 0)  -->
<svg version="1.1" xmlns="http://www.w3.org/2000/svg" xmlns:xlink="http://www.w3.org/1999/xlink" x="0px" y="0px"
	 viewBox="0 0 100 40" style="enable-background:new 0 0 100 40;" xml:space="preserve">
<style type="text/css">
	.st0{fill:#A9ACA9;}
	.st1{font-family:'Onyx';}
	.st2{font-size:31.8336px;}
	.st3{font-size:45.001px;}
	.st4{fill:none;}
	.st5{font-size:17.3335px;}
	.st6{fill:none;stroke:#000000;stroke-miterlimit:10;}
	.st7{opacity:0.48;}
	.st8{fill:none;stroke:#F8FFE1;stroke-miterlimit:10;}
</style>
<g id="Warstwa_2">
	<g id="XMLID_1_">
		<g id="XMLID_167_">
			<g id="XMLID_171_">
				<g id="XMLID_172_">
					<g id="XMLID_173_">
						<g id="XMLID_174_">
							<path id="XMLID_312_" class="st0" d="M73.2,25.1c0.1-0.1,0.2,0.3,0.2,0.4c0.3-0.4,0.3,0.1,0.3-0.7c0.2-0.4,0.3,0.1,0.2,0.4
								l0.5-0.4L74,24.7c0.1-0.6,0.5,0.2,0.5-0.5l-0.5,0.1l0-0.2c-0.1,0.2-0.3,0.1-0.4,0c0-0.1,0-0.3,0.1-0.3
								c-0.6,0-0.2,1.1-0.7,1.3C73.1,25,73.2,25.1,73.2,25.1z"/>
							<path id="XMLID_311_" class="st0" d="M72.7,23.6l-0.2,0.8l-0.4-0.2c0,0.3-0.3,0.5-0.1,0.7c0,0,0.1-0.1,0.2-0.1
								c0,0.6-0.5,0.3-0.4,0.9c0.3-0.2,0.3,0,0.5-0.5c0.3,0.1,0.5,0.2,0.6,0.4c0.1-0.1,0.1-0.4,0.2-0.5c0,0,0,0-0.1,0l0-0.9
								c-0.1,0.2-0.2,0.1-0.3,0.1l0.4-1c-0.1-0.8-0.6-0.3-0.7-0.7C72.6,23.4,72.3,23,72.7,23.6z"/>
							<path id="XMLID_310_" class="st0" d="M73.1,25.1L73.1,25.1L73.1,25.1z"/>
							<path id="XMLID_309_" class="st0" d="M40.5,29c-0.1,0-0.1,0.2-0.2,0.3l1,0.1c0-0.2-0.3-0.5-0.1-0.6c-0.1-0.3-0.4-0.1-0.4,0.2
								l0.1-0.3c-0.3,0.4-0.4-0.4-0.2-0.7l0,0L40,29.5C40.2,29.7,40.2,29,40.5,29z"/>
							<path id="XMLID_308_" class="st0" d="M19.1,25.4c0.2,0,0.2-0.1,0.2-0.2C19.3,25.2,19.2,25.3,19.1,25.4z"/>
							<path id="XMLID_307_" class="st0" d="M39.8,29.9l-0.2,0.5C39.7,30.3,39.7,30.1,39.8,29.9z"/>
							<path id="XMLID_306_" class="st0" d="M41.8,22C41.8,22,41.8,22,41.8,22l-0.1,0.2l0,0L41.8,22z"/>
							<path id="XMLID_305_" class="st0" d="M34.9,31.5C34.9,31.6,34.9,31.6,34.9,31.5C34.9,31.6,34.9,31.6,34.9,31.5z"/>
							<path id="XMLID_304_" class="st0" d="M44.8,19.2l-0.5,0.5c0.1-0.2-0.1-0.2,0-0.5c0,0-0.2,0.1-0.2,0.2l0.1,0
								c-0.3,0.7-0.2,1-0.6,1.5c0.2,0.4,0.4,0.1,0.5-0.3c0,0,0.1-0.1,0.1-0.1l0.4-1L44.8,19.2z"/>
							<path id="XMLID_303_" class="st0" d="M26.2,22.8L26.2,22.8C26.2,22.8,26.2,22.8,26.2,22.8z"/>
							<path id="XMLID_302_" class="st0" d="M26.3,22.5l-0.1,0.2C26.2,22.7,26.4,22.6,26.3,22.5z"/>
							<path id="XMLID_301_" class="st0" d="M39.9,29.5c0,0.1-0.1,0.3-0.1,0.4L39.9,29.5C40,29.5,39.9,29.5,39.9,29.5z"/>
							<path id="XMLID_300_" class="st0" d="M40.4,28l0.4-0.1l0.2-0.4C40.8,27.7,40.6,27.8,40.4,28z"/>
							<path id="XMLID_299_" class="st0" d="M35.5,32c-0.8,0,0.3-0.8-0.1-1c-0.2,0.1-0.3,0.5-0.5,0.6c0.7-0.3-0.2,1.3,0.5,1.1
								c-0.1,0.7-0.5,0.7-0.7,0.5c-0.2-0.7,0.3-0.5,0.4-1.1c-0.3,0.1-0.2,0.2-0.4,0.6c-0.4-0.2-0.9,0.8-1.1-0.2
								c-0.3,0.1-0.3,0.5-0.5,0.8c-0.1,0.7,0.4,0.4,0.5,1c0-0.1-0.1-0.2,0-0.3l0.2,0.2c-0.2-0.3,0.1-0.7,0.2-0.8
								c0.1,0,0.3,0,0.2,0.2L34,33.7c0.2,0.2,0.5-0.5,0.6-0.1c0,0.2-0.1,0.2-0.1,0.3c0.3-0.5,0.5-0.4,0.8-0.8l-0.2,0.7
								c0.3-0.8,0.9-0.5,1.3,0c0-0.1-0.1-0.2-0.1-0.4c0.3-0.2,0.4,0.4,0.3,0.7c0.3-0.6,0.9,0.6,1.2-0.2l1.7-3.6
								c-0.1,0.1-0.1,0.2-0.2,0.2c-0.1-0.6-0.2-0.6,0.1-1.2c-0.3,0.3-0.2,0.8-0.5,0.8c0.2-0.3,0.2-1-0.1-1.1
								c-0.9,0.6-1.5,2.3-2.4,3.2c0-0.5-0.6-0.4-0.9-0.5c0.2-0.5,0.4-0.6,0.6-0.7c-0.1,0-0.4-0.1-0.6-0.1L35.5,32z"/>
							<path id="XMLID_298_" class="st0" d="M37.5,30.5C37.5,30.5,37.5,30.4,37.5,30.5C37.5,30.5,37.5,30.5,37.5,30.5z"/>
							<path id="XMLID_297_" class="st0" d="M36.3,31.1C36.3,31.1,36.3,31.1,36.3,31.1L36.3,31.1C36.2,31.1,36.3,31.1,36.3,31.1z"/>
							<path id="XMLID_296_" class="st0" d="M39.8,28.4c0.1-0.1,0.1-0.2,0.2-0.3c0,0-0.1,0.1-0.1,0.1C39.8,28.2,39.8,28.3,39.8,28.4
								z"/>
							<path id="XMLID_295_" class="st0" d="M39.9,29.2l0,0.2c0,0,0,0,0.1,0C39.9,29.4,39.9,29.3,39.9,29.2z"/>
							<path id="XMLID_294_" class="st0" d="M32.8,27.3L32.8,27.3C32.7,27.4,32.8,27.4,32.8,27.3z"/>
							<path id="XMLID_293_" class="st0" d="M34.7,31.1c0.3,0,0.1-0.7,0.5-0.7L35,30.4c0.3-0.3,0.8-0.1,1.1-0.1
								c-0.1,0.3,0.2,0.4,0.1,0.8c0.2-0.1,0.5-0.2,0.6-0.6c0.1,0.2,0.4-0.2,0.6,0c-0.1-0.3,0.3-0.9-0.1-0.6c0,0,0-0.1,0.1-0.1
								c-0.3-0.4-0.4,0.2-0.7,0.2c-0.1-0.3,0.3-0.4,0.1-0.5c-0.3,0.2-0.9-0.4-1,0.6c-0.2,0.1-0.2-0.2-0.3-0.4
								c-0.4,1-1.3-0.6-1.4,0.8c0.1,0,0.3,0,0.6-0.3L34.7,31.1z"/>
							<path id="XMLID_292_" class="st0" d="M39.3,28.4C39.3,28.4,39.3,28.4,39.3,28.4C39.3,28.4,39.3,28.4,39.3,28.4z"/>
							<path id="XMLID_289_" class="st0" d="M42.6,32.6l-0.2,0.9c-0.7,0.2-0.9-0.1-1.5-0.1c0-0.1,0-0.2,0.1-0.2
								c-0.4,0.1-1-0.2-1.4,0.2c-0.1,0-0.5-0.3-0.3-0.6c-0.1,0.1-0.1,0.1-0.2,0.1c0-0.3,0.2-0.1,0.2-0.3c-0.1,0-0.1-0.1-0.1,0
								c0.1-0.3,0-1.1,0.4-1.1c0.1,0.8-0.3,0.1-0.3,0.9c0.2,0,0.2-0.3,0.2-0.4c0.2,0,0.2,0.2,0.1,0.4c0.1-0.3,0.3,0.1,0.4-0.3
								c0.4,0-0.1,0.6,0.2,0.6l0.2-0.8l0.4,0.2c0.6-0.3,0-1.5,0.7-1.9c-0.1,0.4,0.1,1.2,0.4,1.4c-0.2,0-0.6,0.5-0.8,0.3
								c0.3,0.7-0.5,0-0.4,0.8c0.2-0.3,0.5-0.4,0.7-0.2l-0.1,0.1c0.2,0.1,0.5-0.8,0.8-0.4c0.2,0,0.1,0.2,0.1,0.4
								C42.5,32.6,42.6,32.5,42.6,32.6z M42.3,32.8L42,32.7C42.1,32.8,42.2,32.8,42.3,32.8z"/>
							<path id="XMLID_288_" class="st0" d="M69.7,23.7L69.7,23.7C69.8,23.8,69.7,23.8,69.7,23.7z"/>
							<path id="XMLID_287_" class="st0" d="M51,23l0.1,0C51,23,51,23,51,23z"/>
							<path id="XMLID_286_" class="st0" d="M53.8,20.3l0.2-0.2C53.9,20.1,53.9,20.2,53.8,20.3z"/>
							<path id="XMLID_285_" class="st0" d="M68.3,23.7L68.3,23.7C68.2,23.7,68.2,23.7,68.3,23.7L68.3,23.7z"/>
							<path id="XMLID_284_" class="st0" d="M59.2,22.5c0,0.1,0.1,0.1,0.1,0.2C59.3,22.6,59.3,22.5,59.2,22.5z"/>
							<path id="XMLID_283_" class="st0" d="M53.8,20.3C53.8,20.3,53.8,20.3,53.8,20.3L53.8,20.3L53.8,20.3z"/>
							<path id="XMLID_282_" class="st0" d="M49.9,20.4C49.9,20.5,49.8,20.5,49.9,20.4C49.8,20.5,49.9,20.5,49.9,20.4z"/>
							<path id="XMLID_281_" class="st0" d="M49.9,22.8C49.9,22.9,49.9,22.9,49.9,22.8L49.9,22.8z"/>
							<path id="XMLID_280_" class="st0" d="M45.8,21l-0.2,0.1C45.7,21.1,45.8,21,45.8,21z"/>
							<path id="XMLID_279_" class="st0" d="M49.5,22.3l0,0.1C49.5,22.4,49.5,22.3,49.5,22.3z"/>
							<polygon id="XMLID_278_" class="st0" points="70.8,26.3 70.7,26.3 70.7,26.4 							"/>
							<path id="XMLID_277_" class="st0" d="M71.2,25l0.1-0.1C71.3,25,71.2,25,71.2,25z"/>
							<path id="XMLID_276_" class="st0" d="M61.6,23.9c0,0.1,0.1,0.3,0.1,0.4C61.8,24.1,61.8,23.7,61.6,23.9z"/>
							<path id="XMLID_275_" class="st0" d="M69.9,31.6c0-0.1,0.1-0.2,0.1-0.3C70,31.4,69.9,31.5,69.9,31.6z"/>
							<path id="XMLID_274_" class="st0" d="M70,31.3c0-0.1,0.1-0.1,0.1-0.2C70.1,31.2,70.1,31.2,70,31.3z"/>
							<path id="XMLID_273_" class="st0" d="M60.3,30.9c0-0.1,0-0.1,0-0.1C60.3,30.9,60.3,30.9,60.3,30.9z"/>
							<path id="XMLID_272_" class="st0" d="M71.4,25.1c0-0.2,0.7-0.6,0.1-0.7c0-0.6,0.3-0.3,0.5-0.4c-0.1-0.1,0-0.4,0-0.6
								c-0.1,0.1-0.2,0.3-0.3,0.2c-0.1-0.3,0.1-0.5,0.3-0.4c-0.2-0.3,0.2-0.5,0-0.8c-0.5,0.2-0.9,0.5-1.2,1.4
								c0.3-0.2,0.6-0.3,0.9-0.1l-0.1,0.5c-0.3-0.5-0.4-0.1-0.7-0.2l0.6,0.3c0.3,0.5,0.1,0.6-0.1,0.7C71.4,25,71.4,25,71.4,25.1z"/>
							<path id="XMLID_271_" class="st0" d="M71,29.9L71,29.9C71,29.9,71.1,29.9,71,29.9L71,29.9z"/>
							<path id="XMLID_270_" class="st0" d="M45.2,32l-0.1,0.2C45.2,32.1,45.2,32,45.2,32z"/>
							<path id="XMLID_269_" class="st0" d="M70.7,27.2L70.7,27.2C70.7,27.2,70.7,27.2,70.7,27.2z"/>
							<path id="XMLID_268_" class="st0" d="M46.5,32.1L46.5,32.1L46.5,32.1z"/>
							<path id="XMLID_267_" class="st0" d="M47.5,20.4L47.5,20.4C47.5,20.3,47.5,20.4,47.5,20.4z"/>
							<path id="XMLID_266_" class="st0" d="M46.5,32L46.5,32C46.5,32.1,46.5,32,46.5,32z"/>
							<path id="XMLID_265_" class="st0" d="M52.9,30.3c0,0,0-0.1,0-0.2C52.9,30.2,52.9,30.3,52.9,30.3z"/>
							<path id="XMLID_264_" class="st0" d="M51.7,29.5C51.7,29.5,51.7,29.4,51.7,29.5L51.7,29.5z"/>
							<path id="XMLID_263_" class="st0" d="M61.4,21.4c-0.1,0-0.1,0-0.1,0C61.3,21.5,61.3,21.5,61.4,21.4z"/>
							<path id="XMLID_262_" class="st0" d="M46.5,32.1c0,0.1,0,0.1-0.1,0.2C46.5,32.2,46.5,32.2,46.5,32.1z"/>
							<path id="XMLID_261_" class="st0" d="M54.9,27.7L54.9,27.7C54.9,27.7,54.9,27.7,54.9,27.7L54.9,27.7z"/>
							<path id="XMLID_260_" class="st0" d="M55.5,28.1c0,0.1,0,0.1-0.1,0.2c0.2-0.2,0.7,0,0.7-0.5c-0.1,0-0.5-0.3-0.4-0.7
								c-0.2,0.1-0.4-0.3-0.5-0.2c0.3,0.3,0,0.5-0.2,0.7c-0.2-0.2,0-0.5-0.1-0.6l-0.4,0l0.3,0.1l-0.1,0.6c0,0,0,0,0-0.1
								C55.5,27.4,55,28.4,55.5,28.1z"/>
							<path id="XMLID_259_" class="st0" d="M55.5,28.3c0,0-0.1,0.1-0.1,0.1C55.4,28.4,55.5,28.3,55.5,28.3z"/>
							<path id="XMLID_258_" class="st0" d="M57.7,29.3c0,0,0.1,0,0.1-0.1C57.8,29.2,57.8,29.2,57.7,29.3z"/>
							<path id="XMLID_257_" class="st0" d="M41.2,27.7c0,0.2,0.3,0.5,0.3,0.1L41.2,27.7L41.2,27.7z"/>
							<path id="XMLID_256_" class="st0" d="M63.9,26.9c0,0-0.1,0-0.1,0l0,0.1C63.8,27,63.9,27,63.9,26.9z"/>
							<path id="XMLID_255_" class="st0" d="M55.9,26.9c-0.1,0.1-0.1,0.1-0.1,0.2C55.9,27,55.9,27,55.9,26.9z"/>
							<path id="XMLID_254_" class="st0" d="M63.9,27.9c0,0.1,0.1,0.3,0.1,0.5c0.1,0,0.2-0.2,0.3-0.3C64.2,28.2,64.1,28.1,63.9,27.9
								z"/>
							<path id="XMLID_253_" class="st0" d="M64.3,28.1L64.3,28.1L64.3,28.1z"/>
							<path id="XMLID_239_" class="st0" d="M41,27.5C41,27.5,41,27.5,41,27.5L41,27.5l-0.3-0.2c0,0-0.1,0-0.1,0.1c0,0,0-0.1,0-0.1
								l-0.1-0.1c-0.2,0.4-0.7,0.7-0.8,1c-0.2,0.2-0.4,0.3-0.5,0.2c0.1,0,0.3-0.1,0.3-0.3c-0.2-0.3-0.3-1-0.7-0.4l0.2,0l-0.6,0.9
								c-0.2-0.4,0.3-0.5,0.4-0.8c-0.5,0.4-0.7-0.8-1,0c0-0.5,0-1.3-0.3-1.3c0.2,0.6-0.2,0.3-0.1,1c-0.1,0.3-0.3-0.2-0.3,0.2l0-0.2
								c-0.4-0.8-0.7,0.4-0.9,0.8C35.7,28.3,35.5,28,35,28c0-0.3,0-1.2-0.2-1.2c-0.1,0.4-0.6,0.6-0.7,1.2c0.3,0.3,0.3-0.5,0.5-0.6
								c0.1,0.6,0,0.6,0.2,1c-0.2-0.2-0.9,0.2-1-0.3l0.1-0.1c-0.3-0.4-0.2-1.8-0.8-1l-0.3,0.3c0-0.1,0-0.1,0-0.2
								c-0.4-0.1-0.2-0.7-0.7-0.3c0,0,0-0.1,0.1-0.1c-0.2-0.3-0.6,0.3-0.8,0.4c-0.1-0.5,0.1-0.5,0.2-0.8c-0.4-0.2-1,0.5-1.4,1.1
								l-0.3-0.3c0.2-0.2,0.5-0.7,0.4-0.9c-0.2,0.1-0.2,0.3-0.4,0.2c0.1-0.3,0.2-0.6,0.3-0.9c-0.4-0.5-0.2,1.1-0.5,0.1
								c-0.1,0-0.3,0.4-0.3,0.8l-0.2-0.5c-0.1,0.5-0.4,0.4-0.6,0.5c0,0.2,0.1,0.5,0.2,0.3c-0.1,0.4-0.3,0.5-0.5,0.5
								c0.1-1-1,0-0.7-1.1c-0.7,0.2-1.7,0.2-2.2,0.5c-0.1-0.3-0.4-0.3-0.2-0.8c-0.5-0.1-1,0.9-1.5,0.5c0-0.1,0.3,0,0.3-0.3
								c-0.4,0.3-0.6-0.5-1.2-0.4c0.1,0,0.2-0.2,0.2-0.3c0,0.2-0.3,0.3-0.5,0.4c-0.1-0.1,0.1-0.1,0.1-0.2c-1-0.7-2.1,0.4-3.1,0.1
								c0.3,0.1,0.6-0.5,0.7-0.8L20,24.8c-0.2,0.3-0.4,0.2-0.7,0.4c0-0.1,0-0.3,0.1-0.4c-0.4-0.8-1.3,0.9-1.9,0.3
								c0,0,0.3-0.2,0.6-0.5c0.3-0.2,0.6-0.5,0.6-0.5l-0.1-0.5l0.5-0.4c-0.1-0.4-0.5,0.3-0.4-0.2c0.1-0.1,0.2,0,0.3-0.3
								c-0.1-0.2-0.3,0.1-0.5,0.1c0.7-0.8,1.5-0.6,2-0.7c0.1-0.1-0.1,0.2-0.2,0.3c0.2,0,0.2,0.3,0.5,0.2c0.2-0.4,0-0.3-0.1-0.4
								C20.9,22,21,22,21.1,22c-0.1,0.5,0.6,0.3,0.6,0.9c0.7,0,0.2-1.3,0.8-0.9l0.1,0.6c0.5-0.3,1-0.6,1.4-0.4l-0.1,0
								c-0.1,0.2,0,0.4,0,0.5c0.3,0.3,0.7-0.3,0.8,0.3c0.5-0.5,1.1-0.9,1.6-1.1c0,0.7-0.6,0.5-0.9,1l0.4,0.1c-0.2,0-0.4,0.2-0.6,0.6
								c0.3,0.2,0.5-0.4,0.9-0.6c-0.1,0.2,0,0.3,0.1,0.4l0.1-0.5c0,0,0,0.1,0,0.1l0.6-0.2c-0.1-0.2,0-0.6-0.2-0.7
								c0,0.3-0.1,0.3-0.3,0.3c0.2-0.3-0.1-0.3-0.1-0.5c0.3,0.1,0.6,0,0.9-0.1l0,0.5c0.3,0.1,0.6-0.1,0.8,0.1l-0.1,0.2
								c0.3,0.2,0.7-0.1,0.9,0.4c0.4-0.5,0.8-0.9,1.1-1.4c0.2-0.6,0.8,0.8,1.2,0c0,0.1-0.3,0.4-0.4,0.6c0.2,0.1,0.5-0.6,0.5,0
								c-0.5-0.3,0,0.5-0.3,0.6c0.2,0,0.5-0.1,0.6-0.3c-0.4,0,0.2-0.8-0.2-0.6c0.4-0.5,0.8-0.7,1.1-0.4c0,0.3,0,0.4,0.1,0.5l0.1-0.4
								c0.2,0.1-0.4,0.4,0,0.6c0.4-0.6,1,0.5,1.3-0.7c0.2,0.5-0.6,0.4-0.2,1.1c-0.3,0.4-0.6-0.1-0.7,0.5c0.2-0.2,0,0.5,0.2,0.5
								l0.3-0.3l-0.1,0c0.5-0.5,1.1-0.2,1.7-0.2c0.5-0.6,0.9-1.4,1.5-1.3c-0.2,0.3,0.4,0.4,0,1c0.2,0.3,0.5,0,0.5-0.3
								c-0.2-0.1-0.1-0.1-0.3-0.2c0.2-0.3,0.5-0.3,0.6-0.1c-0.1,0,0,0-0.1,0.1c0.3,0.2,0.2-0.3,0.4-0.4c0,0.5,0.4,0.2,0.6,0.4
								l0.3-0.6c-0.2,0.4,0.2,0.2,0.3,0.6c0.2-0.3,0.4-0.8,0.7-0.7c-0.1,0.2,0.2,0.3,0.2,0.8c0.5,0.4,0.9-1.1,1.3-0.5
								c0,0.1-0.1,0.4,0,0.5c0.1-0.1,0.3,0,0.4-0.1l0,0l0,0c0.1,0,0.1-0.1,0.1-0.2c0.2-0.4,0.4-0.8,0.8-1.1c0-0.5-0.3-0.3-0.5-0.2
								l-0.2,0.5c-0.1-0.7-0.4,0.1-0.4-0.1c0.3-0.8,0.9-0.6,1.4-1.1c-0.2-0.7-0.7-0.8-1.2-0.8l0.2,0.3l-0.2,0l0.2,0.5
								c-0.2-0.1-0.4,0-0.6,0c0.2,0,0.3,0.7,0.2,0.6c-0.2-0.5-0.3,0.3-0.5,0.2c0.1,0.1,0.3,0.1,0.1,0.3c-0.4-0.6-0.5-0.2-0.8-0.9
								c0,0.8-0.5,0-0.6,0.7l0.2,0.1l-0.4,0.5c-0.3-0.7,0.3-0.7-0.1-1.2c-0.5-0.1-0.5,0.7-0.9,0.8c0.2-0.5,0.5-0.9,0.8-0.8L39,20
								c0.1-0.3,0.5-0.2,0.7-0.1c-0.4,0.5,0.1,0.2,0.3,0.6c0.1-0.5-0.2-0.4,0.1-0.8c-0.2,0-0.3,0-0.6-0.2c0.6,0.3,0.7-1.6,1.3-1.1
								c-0.3,0.2,0,0.7,0.1,0.9c0.1,0,0.4-0.1,0.5-0.2l0-0.7c0.4-0.3,0.4,1.2,0.8,0.5c0.1-0.4-0.3-0.2-0.3-0.2
								c0.6-0.4,0.7,0.7,1.1,1.2c0-0.2,0.1-0.6,0.3-1c-0.1,0.4,0,0.6-0.2,0.9c0.1,0.2,0.4-0.1,0.5-0.3c-0.3-0.3,0.2-0.6,0.2-0.8
								c0.2,0.1-0.1,0.4-0.2,0.5c0.1,0.1,0.3,0.7,0.4,0.1c0,0.4-0.5,1.1-0.7,1.2l0.2,0.1c-0.1,0.2-0.2,0.1-0.3,0.1
								c0.1,0.3,0.1,0.7,0,1c0-0.1,0-0.1,0-0.2c-0.1-0.1-0.2,0-0.2,0.2c-0.2,0.6,0.2,0.4,0.2,0.7l0.2-0.1l0.8-1.8
								c0.3-0.2,0.4,0.3,0.6,0.5l0.1-0.5c0.3,0.1,0.5,0.2,0.3,0.8c0-0.2,0-0.1-0.1-0.2c0,0.1,0,0.1,0,0.2l0,0.1
								c0.3-0.1,0.5-0.2,0.5-0.3c-0.5,0.7-0.1,0.9-0.2,1.8l0.5-0.3c-0.3-0.3,0-0.4,0.1-0.5c0,0.5,0.4,0,0.6,0.1l0,0.1
								c0.1,0.2,0.4,0.1,0.6,0c0-0.2,0.3-0.9,0.4-1.4c-0.3-0.2-0.1-0.4-0.1-0.7c0,0,0.1,0,0.1,0c0.1-0.1-0.1-0.2-0.1-0.4
								c-0.4,0.2-0.7,0.3-0.9,0.9c0.1,0.3,0.2-0.3,0.3-0.1c-0.2,0.4-0.4,0.3-0.7,0.3l-0.1-0.4L45.8,21c0.1-0.2,0.1-0.6,0.4-0.7
								c0-0.4-0.3,0.1-0.5-0.1l-0.1,0.5c0.1-0.3-0.4-0.4,0-0.8l0.5-0.4l-0.1-0.4l0.4-0.1l-0.1,0.3c0.7-0.3,0.1,1.1,0.8,0.5
								c0.2-0.6,0.5-0.7,0.9-0.5c-0.3,0.1-0.1,0.5-0.2,0.8c0.3,0.3,0.4-0.2,0.6-0.5c0.1,0.4,0.1,0.6-0.2,0.6
								c-0.1,0.7,0.4-0.1,0.3,0.6c0.9,0,0.8-2.4,1.8-1.4l-0.1,0.3c0.7-0.3,1,0,1.6-0.2l0.4,0.8c-0.1,0.1-0.4,0.7-0.3,1.1
								c-0.2-0.8-0.5-0.5-0.7-1c0,0.2,0.1,0.4,0.1,0.5c-0.1,0-0.2-0.4-0.4-0.2c0,0.2,0.2,0.4,0,0.5l-0.2-0.5
								c-0.4,0.2-0.2,1.1-0.6,0.9c0.1-0.4,0.3-1,0.5-1.1c-0.2-0.1,0.3-0.2,0.1-0.5c-0.3,0.6-0.4,0.1-0.8,0.5c0-0.1,0.1-0.2,0.2-0.2
								l-0.5-0.3c0.1,0.4-0.5,0.4-0.4,0.9c0.6,0.3,0.4-0.1,1,0.3c-0.2,0.1-0.5,0.7-0.6,1.2c0,0,0,0,0-0.1c-0.1,0.5,0,0.7-0.1,1.6
								c0.3-0.7,0.5-0.1,0.9-0.5c0.1-0.5-0.2-0.7-0.4-0.5l0.3-0.3l-0.1,0.2L51,23c-0.2,0-0.2,0.3-0.3,0.5c0.1,0,0.2,0.2,0.3,0.3
								c0-0.5,0-0.8,0.1-0.8c0.5,0.1,0.8,0.6,0.9,1.2l0.1,0c-0.1-0.5,0.4-0.9,0.6-1.4c0,0.5,0.2,0.3,0.4,0.6c0.1-0.6,0-1.4-0.1-1.9
								c-0.4,0.5-0.2,0.5-0.4,1.3l-0.6,0.5l0.1-0.5c-0.3-0.2-0.6,0.4-0.5-0.2c0.2-0.4,0.4-0.1,0.6-0.6L52,21.7
								c0.3-0.6,0.1,0.6,0.5,0.2c-0.1-0.5,0,0,0.2-0.4c-0.1-0.4-0.7,0.1-0.5-0.8c0.2-0.4,0.6,1.1,0.9,0.2l0,0.1
								c0.4,0.1,0.5-0.4,0.7-0.7c0.2,0.3,0.4-0.1,0.6-0.1l0,0.3l0.3-0.1c-0.1,0.5-0.3,0-0.5,0l0,0.5c-0.2-0.6-0.4,0.3-0.6,0.7
								c0.3-0.4,0.8,0.2,0.9-0.8l0.2,0.5l0.1-0.2c0.1,0.4,0,1-0.3,1.1c0-0.1-0.1-0.2,0-0.3c-0.1,0.2-0.3,0.6-0.5,0.5l0.2-0.3
								c-0.4,0-0.7,0.1-0.8,0.6c0.5,0.2,1,0.3,1.5,0.3c0.2-1.1,0.4-1.7,0.5-2.7c0.3-0.2,0.8-0.3,1,0.1l0,0.2
								c0.1,0.1,0.3,0.1,0.4-0.1c0.1,0.3-0.1,0.5,0,0.7l0.5-0.3c0,0.5-0.4,0.5-0.6,0.5c0,0,0.1-0.1,0.1-0.2
								c-0.2-0.2-0.6,0.6-0.7-0.1c-0.1,0.1,0.2-0.5-0.1-0.5c-0.2-0.3-0.3,0.3-0.4,0.5c0,0.3,0.4,0.4,0.2,0.7c0.2,0,0.3-0.4,0.5-0.1
								c-0.2,0-0.5,0.6-0.5,0.1c-0.4,0.5-0.4,1.7-0.2,1.8c0-0.4,0.7-0.5,0.2-1c0.2-0.5,0.6-0.5,0.9-0.8l0,0.1l0.4-0.1
								c-0.1,0.1-0.2,0.3-0.2,0.5l0.5-0.7c-0.3,0.5,0.2,0.3,0.3,0.5c0.1-0.4,0.3-0.7,0.1-0.9c-0.2-0.3-0.1,0.2-0.3,0.2l0.3-0.6
								l0,0.1l0.2-0.5c0.4,0-0.2,1.2,0.3,0.7l0-0.7c0.5,0.1,1.2,0.9,1.6,0.6c-0.1,0.4-0.2,1.1,0,1.4c-0.2-0.1-0.5-0.1-0.7,0
								c0-0.1,0.3-0.8,0.6-0.7c-0.1-1.2-0.7,0.7-0.6-0.5c-0.6-0.4-0.5,1.1-1,0.4c0,0.5-0.2,0.3-0.2,0.7c0.1,0.9,0.7,0,1.1,0.3
								c0,0-0.1,0.1-0.1,0.2c0.2,0.2,0.4,0,0.5-0.1l0-0.1c0.3-0.5,0.2,0.4,0.4,0.6c0.1-0.1,0.3,0.1,0.3-0.3l0.3,0.5l0-0.6
								c0.2,0,0.2,0.4,0.4,0l0-0.5l-0.5-0.2c0.2-0.2,0.1-0.5,0.3-0.6c-0.3,0.6,0.2,0.3,0.2,0.8l0.2-0.3l-0.1,0.1
								c0.1,0.3,0.2-0.2,0.4-0.1c-0.2-0.3-0.3-0.7-0.6-0.3c0.2-0.3,0.6-0.6,0.7-0.6c0.2-0.2,0.3,0.2,0.5,0.3
								c-0.4,0.2,0.1,1.6-0.6,1.2c0-0.1,0.1-0.1,0.1,0c-0.1-0.7-0.4,0-0.6,0.3c0,0.4-0.1,0.5,0.1,0.7c-0.1-0.3,0.3-0.9,0.5-0.5
								l-0.1,0.8l0.4,0.1l0,0c0.1,0.5,0.4-0.1,0.7,0.2c0.2-0.3,0.9,0,0.6-0.9c0.2,0.5,0.4-0.1,0.7-0.2l-0.3-0.3
								c0.4-0.6,0.3-0.2,0.6-1.1c0,0.2,0.1,0.4,0,0.7c0.5,0.1,1.2,0.3,1.5-0.4c0.4,0,0.4,1,0.9,0.6c0.1-0.1-0.1-0.8,0.3-0.5
								c0,0.1-0.3,0.6,0,0.5c0.3-0.6,0.6,0.4,1-0.2c0.2,0.2,0.5,0.1,0.4,0.7c-0.3-0.1-0.7,0-0.8,0.2c0-0.3-0.2-0.3,0-0.5
								c-0.4-0.4-0.3,0.3-0.7,0c0,0.2,0.2,0.6,0.3,0.4c0,0.7-0.8,0.3-0.4,1.2c0.4,0.1,0.6-1.4,0.9-0.6c-0.1,0.4-0.4,0.1-0.6,0.8
								l0.3,0.3l0.2-0.5l0,0.1c0.5,0.6,0.5-0.7,1-1c-0.3-0.5,0.1-1.2-0.1-1.5c0.3-0.1,0.5,0,0.5,0.7c-0.6,0.6,0,0.7-0.6,1.4
								c0.1,0.2-0.1,1,0.2,1.1c0.4-0.5-0.1-0.6,0.3-0.8c0,0.1,0,0.1,0,0.2c0.2-0.4,0.2,0.1,0.4-0.3l0,0.1c0.2,0.4,0.3-0.5,0.5,0
								c-0.1-0.5,0.1-0.4,0.3-0.7c-0.2-0.2-0.3-0.9-0.8-0.9c-0.1,0.4,0,0.6-0.2,0.8l0.3,0c-0.1,0.1-0.1,0.2-0.2,0.3L68,23.5
								c0.3-0.3,0.2-0.7,0.3-1.1c0.3,0.2,0.3-0.1,0.4,0c0,0.6,0.6,1,0.9,1.4c-0.1,0-0.1,0-0.2,0c-0.3,0.4,0.2,0.5,0.2,0.7l0.2-0.3
								c0,0-0.1,0.2,0,0.3c0.3-0.1,0.2-0.7,0.5-0.8c0,0.3-0.2,0.8,0,1c0.1,0.3,0.2,1,0.6,0.8c0-0.1,0.1-0.2,0.2-0.2c0,0,0,0,0,0.1
								l0.2,0.4c-0.2,0.6-0.4-0.3-0.6,0.3l0,0.5c-0.2,0-0.4,0.2-0.5,0.5c0.2,0.1,0.3,0,0.5-0.2c0,0.3-0.1,0.6-0.2,0.6l0-0.3
								c-0.3-0.4-0.5,0.5-0.8,0.4c-0.1,0,0-0.1,0-0.2c-0.3,0.5-0.6-0.2-0.9,0.5l0.1-0.3c-0.2,0.2-0.6,0.7-1,1.2l0,0.2
								c0,0.1-0.1,0.1-0.2,0l0,0c-0.2,0.3-0.4,0.5-0.6,0.7c0,0.1,0.1,0.2,0.2,0.3c0.1-0.2,0.4,0,0.4-0.6c0.2,0.3,0.4-0.1,0.6,0.1
								c-0.2-0.4,0.2-0.5,0.2-0.8c0.1,0.3,0.3,0,0.3,0.4c0,0.1-0.1-0.3-0.2,0c-0.2,0.4,0.4,0.4,0.1,0.8c0.4-0.3,0.9-0.2,1.3-0.6
								l-0.2-0.2c0.2,0.1,0.6,0,0.6,0.2c-0.1,0.1-0.3,0-0.4,0.1c0,0.5,0.4,0,0.4,0.3l0.5-0.9l-0.2,0c0.1-0.3,0.6,0.1,0.9,0.1
								c-0.2,0.7-0.5,0-0.8,0.3c-0.2,0.3,0.2,0.7-0.1,0.9c0.1,0.2,0.2,0.1,0.3,0l0.1,0.1c-0.2,0.7-0.7,0.5-1,1.1
								c0-0.1,0.1-0.1,0.1-0.2c-0.2-0.3-0.5-0.2-0.7-0.1c0.1,0.2,0.2,0.1,0.2,0c0,0.2-0.2,0.2-0.3,0.4c0.2,0.2,0,0.4,0.2,0.5
								c-0.1,0.2-0.3,0.1-0.4,0c-0.1-0.2,0.1-0.3,0.1-0.7c-0.2,0.2-0.3-0.6-0.5-0.2c0.4,0.1-0.1,0.7-0.2,0.9l0.1,0
								c-0.1,0.4-0.2,0.4-0.3,0c0.1-0.2,0.3,0,0.2-0.4c-0.1,0-0.2,0-0.3,0.1l0.1-0.3l-0.5,0.1c-0.1,0.3-0.2,0.8-0.3,1.3
								c-0.1-0.3-0.3-0.1-0.4,0.1l0.1-0.1c-0.2-0.3-0.7-0.1-0.7,0.2c-0.1-0.3,1.1-1.9,0-1.6c-0.4,0-0.3,1-0.5,1.3c0,0,0-0.1,0-0.2
								c-0.2-0.1-0.2,0.3-0.3,0.4c0.1,0.1,0.3,0.2,0.3,0c-0.1,0.4-0.4,0-0.5,0.3c0.2-0.6-0.3-0.2-0.2-0.6c-0.3-0.4-0.7,0.1-0.9,0.5
								c-0.2-0.8-0.4,0.1-0.8-0.3c0.1,0,0.2-0.1,0.2,0c0.2-0.5-0.4-0.3,0-0.7c-0.1,0.1,0,0.3,0.1,0.2c0.1-0.1,0.3-0.3,0.2-0.5
								l-0.3-0.4l0.1-0.1l-0.5-0.6c0,0.1,0,0.2,0,0.3c-0.5-0.3-1.2,0-1.7,0c-0.1,1.4-1.2,0.6-1.6,1.4c0.1-0.4,0.2-1.1,0.1-1.4
								c0.1-0.1,0.3-0.6,0.5-0.5c0,0.2,0.3,0.5,0.1,0.7c0.5-0.1-0.1-0.6,0.1-1.1c-0.6,0.1-1,0.9-1.4,1.2l0-0.2l-0.3,0.3
								c0.2,0.1,0.2,0.9-0.1,0.6l0,0c-0.2-0.3-0.5,0-0.8,0l-0.2,0.5C58,32.3,58,31.5,58,31c-0.4-0.1-0.7,0.6-1,1
								c-0.1-0.4-0.8-0.5-0.4-0.9c-0.4,0.3-0.4,2.3-1,1.2l0.2-0.4c-0.6,0.1-1.5,0.7-1.8,0.3c0.3-1.3-0.7-1.3-0.8-2.6
								c0,0.3-0.2,0.4-0.3,0.5c0-0.2-0.1-0.3-0.2,0c0.2,0.3-0.2,1.3,0.3,0.8c-0.3,0.9-0.6,1.5-1.1,1.5l0-0.5l0.4,0.2
								c0-0.4,0.2-0.4,0.3-0.5c-0.7-0.3,0.2-1.2-0.6-1.2c-0.1,0.3,0,0.2-0.2,0.3c0.1,0,0.1-0.4,0-0.4l-0.2,0.4
								c-0.2-0.9,0.5-0.6,0.3-1.2c0.3-0.4,0.8-0.6,0.8-1.3c-0.5-0.3-0.5,1.2-1,0.9l0-0.3c-0.2,0.2-0.2,0.6-0.3,0.9
								c0-0.2,0-0.3-0.2-0.3c-0.3,0.7-0.5,0.8-0.9,1.5c0.8-0.5,0.6,0.5,1.4,0.1c-0.1,0.2-0.7,0.3-0.7,1.1l0-0.5
								c-0.3,0.3-0.5,0.5-0.8,0.3l0.2-0.3c-0.4,0.3-0.7-0.8-1,0c0.1,0.1,0.2,0,0.3,0c-0.2,0.2-0.5,0.2-0.7,0.1l-0.5,0.8
								c0-0.3-0.3-0.3-0.1-0.7c-0.3-0.4-0.5,0.4-0.7,0.5c-0.3-0.6,0.3-0.2,0.4-1c-0.5-0.3-1-0.1-1.3,0.4c0.1,0.1,0.1,0.2,0.1,0.3
								c0-0.2-0.2-0.1-0.3-0.1l-0.1,0.3c-0.2-0.2-0.1-0.4,0-0.7c-0.2-0.1-0.4,0.6-0.6,0.1c0.3-0.4,0.7,0,0.9-0.3
								c-0.6,0.3-0.6-1.1-1.4-0.7c0-0.2,0.2-0.5,0-0.5c-0.4,0.1-0.1,0.7-0.3,1.1c0.3-0.2,0.4,0,0.5,0.5L45.2,32
								c0-0.1-0.2-0.2-0.2-0.3l-0.1,0.6c0.1-0.6-0.2-1.1-0.4-0.9c0.2,0.5,0.1,0.4,0.1,1.2c-0.3,0.7-0.3-0.7-0.7,0
								c0-0.2,0.3-0.3,0.1-0.5c-0.2,0-0.2,0.4-0.4,0.6c0.2-0.5,0.2-0.9,0.4-1.5c0.4,0,0.2,0,0.5-0.2l-0.3-0.5
								c0.3-0.1,0.3-0.6,0.3-0.8c-0.5-0.6-0.5,0.8-0.8,0.6c-0.2,0.3,0.3,0.1,0,0.5c-0.3-0.1-0.1,0.3-0.5,0.5l0.1-0.2
								c-0.1-0.3-0.2,0.1-0.4,0.1c-0.2,0.1,0,1.8-0.5,1.8c0-0.1,0.1-0.2,0.1-0.3l0.9-4.3c-0.6,0-1.3-0.2-1.9-0.5
								c-0.1-0.9,0.5-0.7,0.5-1.1l0.3,0.2c0,0.4-0.7,0.1-0.4,0.7c0.6-0.2,0.8,0.2,1.4-0.5c-0.1-0.9-0.7,0.1-1-0.6
								c0.1,0.1,0.3,0,0.4-0.1c-0.3-0.1-0.6-0.3-1-0.4l-0.1,0.2c0.2,0.1,0.4,0.2,0.4,0.2c-0.3-0.1-0.6,0.4-0.7,1l0.1,0l-0.1,0.2
								L41,27.5z M20,24.8c0-0.1,0.1-0.1,0.1-0.2C20.1,24.6,20.1,24.7,20,24.8z M47.5,25.8c-0.4-0.1-0.9-0.3-1.3-0.4
								c0.7,1.3,1.2,2.3-0.1,2.2l-0.1,0.1c0.2,0.2,0.4,0.2,0.7,0.1c0.2-0.4,1-2,1-2.2c-0.1-0.4-0.2,0-0.3-0.1L47.5,25.8z M47.7,27.9
								c0.2,0.2,0.2-0.1,0.2-0.4l-0.3,0.1C47.7,27.6,47.7,27.7,47.7,27.9z M48,27.2C47.9,27.2,47.9,27.2,48,27.2L48,27.2z
								 M43.2,26.6C43.2,26.6,43.2,26.6,43.2,26.6c0,0-0.1-0.1-0.1-0.1C43.1,26.6,43.1,26.6,43.2,26.6z M43.7,27.3l0.1-0.5l-0.2-0.1
								C43.6,27,43.6,27.2,43.7,27.3z M45.2,28.9c0.1-0.5,0.5-0.5,0.5-1.2c0-0.2,0-0.2-0.1-0.3c-0.1,0-0.2,0-0.3-0.1
								c0,0.1,0,0.2-0.1,0.3c0.1,0.1,0.2,0.2,0.1,0.6c-0.2-0.9-0.3,0.6-0.5,0.4C44.7,29,45.1,29,45.2,28.9z M66.6,28
								c0,0.1,0,0.2,0.1,0.4l-0.2,0.3c-0.3-0.1-0.6-1-0.9-0.3c-0.1-0.2-0.2-0.6-0.3-1c0.1,0,0.1,0.1,0.2,0.1
								C66.3,26.4,65.9,28.7,66.6,28z M62.6,26.8c0,0,0.1-0.1,0.1-0.1c-0.8,1.1-1.4,1.5-1.9,1.4c0.1,0.5,0.4,0.8,0.6,1l-0.2,0.5
								l-0.1-0.4l-0.3,0.5c0.1,0.4,0.3,0.3,0.4,0.6c0-0.1,0.5-0.7,0.6-1l-0.4-0.4c0.1,0.1,0.6,0,0.8-0.1c0-0.3-0.3-0.7-0.4-0.1
								c0-0.4,0.4-0.4,0.1-0.8c0.3-0.4,0.8-0.1,1,0.1l0,0.7c0.2,0.3,0.2-0.8,0.5-0.4c-0.4,0.1,0,0.7-0.2,0.8c0.1,0.2,0,0.7,0.3,0.6
								c0.2-0.9,0.3,0.5,0.5-0.2c0.1,0.3-0.2,0.5,0.1,0.6c0.3-0.4,0.3-0.8,0.4-1.4c-0.3-0.2-0.4,0.8-0.6,0.7l0.5-1.1
								c-0.1-0.2-0.2-0.2-0.2-0.1c0.1-0.1,0.2-0.2,0.3-0.4c0-0.1,0.1-0.2,0.1-0.3c-0.3,0-0.5,0-0.6-0.3l0-0.3
								c-0.1-0.3-0.3-0.1-0.3,0.2c-0.3,0-0.5,0.4-0.6,0.1l0.1-0.3C63,26.8,63,26.8,62.6,26.8z M52.3,25.8c0.1,1.1,0.3,2.1,1.2,2
								l-0.1,0.1c0.4,0.7,0.9-0.9,1.4-0.1c-0.3,0.4-0.3,0.4-0.6,1.3l0.3-0.3c-0.1,0.6,0.2,0.3,0.4,0.3l-0.2,0.7
								c-0.1-0.2-0.4-0.3-0.4-0.1c0.1-0.1-0.4-0.9-0.7-0.7c0,0.5,0.6,0.3,0.3,1.1c0.2-0.3,0.2,0.2,0.5,0c-0.2,0.3-0.1,0.7-0.3,1
								l0.4-0.2c0,0.2-0.6,0.3-0.3,1c0.2-0.3,0.6,0.1,0.6-0.4l0,0.2c0.3,0.1,0.2-0.7,0.5-0.4c0-0.3,0-0.5-0.2-0.4
								c-0.1,0.1-0.1,0.5-0.4,0.5c-0.1-0.4,0.3,0.1,0.1-0.6c-0.1-0.3-0.6,0.3-0.4-0.5l0.3,0.1c0-0.5,0.2-0.5,0.2-0.9
								c0.2-0.2,0.3,0.4,0.5,0c0.1-0.3,0-1,0.3-0.7c0.2,0.8,0.9,0.7,1.2,0.6l0.2-0.3c0-0.3-0.4,0-0.3-0.4l0.4-0.1l0,0.2
								c0.1,0,0.2-0.2,0.4-0.3c-0.1,0.4-0.4,0.2-0.3,0.8c0.2,0.1,0.2,0.3,0.3,0.2c0,0-0.1,0.1-0.1,0.2c0.3,0.2,0.3-0.6,0.4-0.8
								c0.4-0.7-0.3-0.7-0.3-1.2l1-0.3c-0.1,0.2-0.2,0.4-0.2,0.6c0.2,0.3,0,0.4,0.3,0.4c0-0.8,0.4-0.5,0.7-0.9
								c0.1,0.3,0.1,0.4-0.1,0.4c0,0.5,0.3,0.3,0.5,0.4c0.1-0.1,0.2-0.2,0.3-0.3c-0.1-0.2,0-0.6,0.2-0.8l0-0.1
								c-0.3-0.1-0.9-0.7-1.1-0.2l0.1-0.2c-0.4-0.4-0.9,0.9-1.1-0.1c0-0.4-0.1-0.1-0.1-0.6L58,26.1l0.1-0.2L57.6,26l0-0.1
								c-0.2,0.5-0.4,0.9-0.6,1.2c0,0.2,0,0.3-0.1,0.5c-0.1,0.1-0.1,0.1-0.2,0.1l0,0l0,0c-0.1-0.1-0.2-0.4-0.3-0.5l0.5,0
								c0.1-0.4,0-0.8-0.2-1.1c0.1,0,0.1-0.3,0-0.4c0,0.1-0.3,0.2-0.2,0.6c-0.4,0.1-1.1-0.9-1.8-0.2c0.5-0.4-0.4-0.5,0.2-0.7
								c-0.4-0.6-0.3,0.6-0.7,0.5c0-0.2,0.2,0,0.3-0.4c-0.6-0.3-1.1,1-1.7,0.8l0-0.5C52.6,25.7,52.4,25.7,52.3,25.8z M51.1,26.3
								c-0.1,0-0.2,0.1-0.4,0.2l0,0l-0.4,0.4c0.2,0.2,0.3,0.7,0,1c0-0.2,0-0.5,0.1-0.6c-0.2-0.3-0.6-0.6-0.5,0.1
								c0.4-0.7,0,0.9,0.4,0.4c-0.2,0.5-0.3,0.2-0.5,0.5c0.2-0.4,0-0.9-0.2-1.1c-0.1,0.1-0.4,0-0.6,0.2c0,0.5-0.1,0.7,0.2,0.8
								c-0.1,0.1-0.3,0.2-0.5,0c0.1-0.1,0.2-0.1,0.2-0.3c-0.1-0.4-0.2-0.4-0.3-0.6l-0.2,0.1c0,0,0,0.1,0,0.2l-0.2,0.4
								c0.3-0.2,0.1,0.2,0.1,0.5c0-0.5-0.2-0.1-0.3-0.1l0.2,0.6c-0.1,0.3-0.3-0.4-0.3,0.1c0.4,0.2,0.6,0.2,1,0l-0.1-0.4
								c0.5-0.3,0.2,0.8,0.7,0.8c0.2-0.4,0.7,0,0.8-0.8c-0.1,0.2,0.3,0.7,0.5,0.4c0.2-0.7,0.8-0.8,0.6-1.1c-0.2,0-0.4,0.4-0.5-0.1
								l0.3-0.1L51,27.2C51.1,27.3,51.1,26.9,51.1,26.3z M44.8,21.6L44.8,21.6L44.8,21.6L44.8,21.6z"/>
							<path id="XMLID_238_" class="st0" d="M70.9,26.3c0.1-0.2,0.3-0.2,0.3-0.5C71.2,26.2,70.8,25.9,70.9,26.3z"/>
							<path id="XMLID_237_" class="st0" d="M71.2,26.8c0-0.1,0-0.3,0.1-0.3L71,26.6L71.2,26.8z"/>
							<path id="XMLID_236_" class="st0" d="M71.4,29.7c0.1-0.3,0.2-0.5,0.4-0.5c0.1,1-0.3,0.3-0.4,1.3c0.4,0.1,0.5-0.8,0.8-0.9
								C72.1,29.1,71.5,28.9,71.4,29.7z"/>
							<polygon id="XMLID_235_" class="st0" points="71.3,31 71.5,30.8 71.5,30.7 71.3,30.9 							"/>
							<path id="XMLID_234_" class="st0" d="M66.7,21.9c0-0.3-0.1,0-0.2,0.1C66.5,22,66.6,22.1,66.7,21.9z"/>
							<path id="XMLID_233_" class="st0" d="M25.8,19.1l-1.5,0.1C24.8,19.2,25.2,19.2,25.8,19.1z"/>
							<path id="XMLID_232_" class="st0" d="M61.3,24c0.4-0.3,0.6-0.9,1.1-1c-0.6-0.7-0.8,1-1.3,0.3L61.3,24z"/>
							<path id="XMLID_231_" class="st0" d="M61.6,21.4c0.1,0.6-0.3,0.7-0.3,1.2c0.3-0.1,0.1-0.6,0.4-0.5L61.6,21.4z"/>
							<polygon id="XMLID_230_" class="st0" points="63.3,31.5 63.2,31.9 63.3,31.7 							"/>
							<polygon id="XMLID_229_" class="st0" points="59.6,21.9 59.6,21.7 59.4,21.5 							"/>
							<path id="XMLID_228_" class="st0" d="M59.7,21.6l-0.1,0.1L59.7,21.6z"/>
							<polygon id="XMLID_227_" class="st0" points="63.1,32.8 63.3,33 63.4,32.7 							"/>
							<path id="XMLID_226_" class="st0" d="M61.4,29.5l0.2-0.2C61.6,29.4,61.4,29.1,61.4,29.5z"/>
							<polygon id="XMLID_225_" class="st0" points="58.3,21.6 58,21.8 58.1,21.9 58.3,21.6 							"/>
							<path id="XMLID_224_" class="st0" d="M60,31.2c0.1,0.5-0.4,0.1-0.1,0.5C60.1,31.7,60,31.4,60,31.2z"/>
							<path id="XMLID_223_" class="st0" d="M57.5,27.9C57.5,27.9,57.5,27.9,57.5,27.9C57.5,28,57.5,27.9,57.5,27.9z"/>
							<path id="XMLID_222_" class="st0" d="M57.5,27.9c0.1,0,0.2,0.2,0.2,0.1C57.7,27.8,57.6,27.8,57.5,27.9z"/>
							<path id="XMLID_221_" class="st0" d="M56.4,28L56.4,28c0,0.3,0,0.2,0.1,0c0.1,0,0.1-0.2,0.1-0.3c0-0.1,0-0.1,0.1-0.2
								c0,0.1-0.1,0.1-0.1,0.2C56.5,27.8,56.4,27.8,56.4,28z"/>
							<path id="XMLID_220_" class="st0" d="M52.8,19.9c0.3,0.2,0.4,0.3,0.3,0.6c0.3,0.1,0.3-0.5,0.4-0.6
								C53.3,20,53.2,19.8,52.8,19.9z"/>
							<path id="XMLID_219_" class="st0" d="M53.6,19.9c0,0,0.1,0,0.1,0C53.7,19.9,53.6,19.9,53.6,19.9z"/>
							<polygon id="XMLID_218_" class="st0" points="57.6,32 57.4,32.6 57.4,32.5 							"/>
							<path id="XMLID_217_" class="st0" d="M52.4,19.7c0.1,0,0.1,0,0.2,0.1C52.6,19.5,52.3,19.7,52.4,19.7z"/>
							<path id="XMLID_216_" class="st0" d="M53.2,26.9c0,0.2,0.2,0.1,0.3,0.2C53.4,27.1,53.4,26.4,53.2,26.9z"/>
							<path id="XMLID_215_" class="st0" d="M51.4,21.2c0.1,0,0.1,0.3,0.1,0.6C51.6,21.6,51.7,21,51.4,21.2z"/>
							<polygon id="XMLID_214_" class="st0" points="52.7,26.8 52.7,27 52.9,26.7 							"/>
							<path id="XMLID_213_" class="st0" d="M53.2,32.3c0.3-0.4-0.3-1.1,0.1-1.4c-0.5-0.5,0,0.6-0.4,0.5
								C53.2,31.5,53.3,32.1,53.2,32.3z"/>
							<path id="XMLID_212_" class="st0" d="M52.9,31.4c0,0-0.1,0-0.1,0C52.9,31.4,52.9,31.4,52.9,31.4z"/>
							<path id="XMLID_211_" class="st0" d="M49.7,28.5c0,0,0.1-0.1,0.1-0.1C49.7,28.4,49.7,28.4,49.7,28.5z"/>
							<path id="XMLID_210_" class="st0" d="M51.7,31.7L52,31c-0.3,0.4-0.9,0.4-0.9,1C51.4,32.2,51.6,32,51.7,31.7L51.7,31.7z"/>
							<path id="XMLID_209_" class="st0" d="M48.1,19.7l0.2-0.2l-0.2-0.1C48.1,19.5,48,19.9,48.1,19.7z"/>
							<path id="XMLID_208_" class="st0" d="M48.1,19.3L48.1,19.3C48.1,19.3,48.1,19.3,48.1,19.3z"/>
							<path id="XMLID_207_" class="st0" d="M50.4,28.2c0.1,0.1,0.2,0,0.3-0.1C50.6,28,50.4,27.9,50.4,28.2z"/>
							<polygon id="XMLID_206_" class="st0" points="47,20.6 47.2,20.5 47,20.5 							"/>
							<polygon id="XMLID_205_" class="st0" points="45.9,19.4 45.8,19.3 45.6,19.5 45.6,19.6 							"/>
							<path id="XMLID_204_" class="st0" d="M46.7,32.3c0.2,0.1,0.3-0.5,0.3-0.6l-0.3,0c0.1,0.5,0.1,0,0.3,0.1L46.7,32.3z"/>
							<path id="XMLID_203_" class="st0" d="M37.1,19.8c0.1-0.3,0.4-0.1,0.4,0.2c-0.1,0.1-0.3,0.3-0.2,0.5l0.4-0.8
								c0.3,0.6-0.4,1.1-0.6,1.4c0.4,0.1,0.5-0.4,1-0.4c-0.1-0.1-0.2-0.3-0.2-0.5c0-0.6,0.4-0.3,0.7-0.3c-0.2-0.3,0-0.5,0.1-0.7
								c0,0,0,0,0.1-0.1l0-0.1l0,0c0-0.1,0-0.1,0-0.3c-0.2,0.2-0.4-0.4-0.5-0.4c0.1,1-0.5,0.2-0.7,0.5l-0.2,0.1l-0.1,0
								c0-0.1,0-0.2,0.2-0.4c-0.1,0.2-0.5,0.1-0.4,0.4l-0.8,0c0,0,0-0.1-0.1-0.2c0,0.1,0,0.1,0,0.2l-3.4-0.2
								c0.2,0.1,0.3,0.3,0.5,0.4c-0.3,0.6,0.3,0.1,0.1,0.7c-0.1,0.2-0.3,0.1-0.4,0c-0.1,0.3,0.1,0.6,0,0.9c0.4,0.4,0.6-1,1-0.8
								c0,0.4-0.2,0.7,0.1,0.6l-0.1,0.1c0.5-0.4,0.3,0.9,0.6-0.1L34.3,21c0.2-0.4,0.6-0.3,0.8-0.4l0,0.1c0.7-0.6,0.4-0.1,1.1-0.3
								L35.9,21c0.2,0.3,0.3-0.4,0.5-0.3c0,0.1,0,0.5-0.2,0.6l0.9-0.9C37.3,20,37.1,20,37.1,19.8z"/>
							<path id="XMLID_202_" class="st0" d="M38.1,20.6c0,0,0.1,0,0.2,0C38.2,20.6,38.1,20.6,38.1,20.6z"/>
							<path id="XMLID_201_" class="st0" d="M32.3,18.5l0.2,0C32.5,18.5,32.4,18.5,32.3,18.5z"/>
							<path id="XMLID_200_" class="st0" d="M39.4,19.6c-0.1-0.3,0.1-0.4,0.2-0.6L39,19c0,0.2-0.1,0.4-0.1,0.6L39.4,19.6z"/>
							<path id="XMLID_199_" class="st0" d="M38.9,18.6c0,0.1-0.1,0.3-0.2,0.4l0.3,0C39,18.8,39,18.7,38.9,18.6z"/>
							<polygon id="XMLID_198_" class="st0" points="38.1,29.4 38,29.4 37.9,29.5 							"/>
							<path id="XMLID_197_" class="st0" d="M36.7,28.4c0.1,0.3,0.3,0.1,0.4,0C36.9,28.4,37,28.3,36.7,28.4z"/>
							<polygon id="XMLID_196_" class="st0" points="36.8,31.7 36.5,31.8 36.5,31.9 							"/>
							<path id="XMLID_195_" class="st0" d="M30.4,20.4l-0.1,0C30.3,20.5,30.3,20.4,30.4,20.4z"/>
							<path id="XMLID_194_" class="st0" d="M32.4,20.1c-0.5-0.6,0.4-0.5,0.3-1.2l-0.3,0.2l0-0.2l-0.4,0c0,0.4,0.1,0.4,0,0.7
								c-0.5-0.2-0.1-0.4-0.4-0.9l-0.5,0l0.1-0.1c0,0-0.1,0-0.1,0.1l-1.8,0c-0.4,0.3,0.1,0.7-0.2,1.2c0.4,0,0.9,0.5,1-0.2
								c0,0.1-0.1,0.3,0,0.4l0.3-0.6l-0.2-0.2c0.3-0.6,1-0.4,1.1,0c-0.4,0.2-0.3,0.9-0.8,0.5c0,0.2,0.1,0.5-0.1,0.6
								C31.1,20.3,31.6,20.7,32.4,20.1z"/>
							<path id="XMLID_193_" class="st0" d="M25.8,19.7L25.8,19.7C25.8,19.7,25.8,19.7,25.8,19.7z"/>
							<path id="XMLID_192_" class="st0" d="M26,19.8l0.4-0.7l-0.5,0l-0.1,0.5c0.1-0.1,0.3-0.3,0.3-0.1L26,19.8z"/>
							<path id="XMLID_191_" class="st0" d="M26.9,18.8c-0.3,0.2-0.3,0.8-0.3,1c-0.3,0.2,0-0.6-0.3-0.1c-0.1,0.4,0.3,0.2,0.3,0.1
								L26.9,18.8z"/>
							<polygon id="XMLID_190_" class="st0" points="28.6,19.3 28.5,19.6 28.7,19.7 							"/>
							<path id="XMLID_189_" class="st0" d="M28.5,19.6l-0.2-0.1c0,0.2,0,0.4,0,0.5L28.5,19.6z"/>
							<path id="XMLID_188_" class="st0" d="M27.9,19.3c-0.1-0.1-0.1-0.1-0.2-0.1L27.9,19.3z"/>
							<path id="XMLID_187_" class="st0" d="M28.1,19.4L28.1,19.4l-0.2-0.2C28,19.3,28.1,19.4,28.1,19.4z"/>
							<path id="XMLID_186_" class="st0" d="M28.4,19.5c0-0.4,0-0.8-0.2-0.8l0,0.6L28.4,19.5z"/>
							<polygon id="XMLID_185_" class="st0" points="35.1,30.9 34.9,31.1 34.9,31.2 35.1,31 							"/>
							<path id="XMLID_184_" class="st0" d="M33.9,30.5c-0.1,0.1-0.1,0.1-0.1,0.2C33.8,30.6,33.9,30.6,33.9,30.5z"/>
							<path id="XMLID_183_" class="st0" d="M32.7,33.2c-0.2-0.4,0.4-0.5-0.1-0.7c0-0.4,0.3-0.9,0.5-0.7c0,0.4-0.2,0.2-0.1,0.6
								c0.2-0.4,0.2-0.1,0.2-0.7c0.3-0.3,0.3-0.7,0.5-1c-0.3,0.2-0.9-0.4-1.3,0.3c-0.3,0.6-0.2,1.5-0.3,2.5
								C32.1,33.7,32.7,33.8,32.7,33.2z"/>
							<path id="XMLID_182_" class="st0" d="M33,34.2c0.1,0.1,0.2,0,0.2-0.1C33.3,33.8,33.1,34.2,33,34.2z"/>
							<path id="XMLID_181_" class="st0" d="M31,26.8c0,0.1-0.3,0.3-0.2,0.5l0.3-0.1C31,27.1,31,27,31,26.8z"/>
							<path id="XMLID_180_" class="st0" d="M31.2,27.1l-0.1,0.1C31.1,27.2,31.2,27.2,31.2,27.1z"/>
							<path id="XMLID_179_" class="st0" d="M31,26.7L31,26.7C31,26.8,31,26.7,31,26.7z"/>
							<path id="XMLID_178_" class="st0" d="M27.3,18.9c0-0.3-0.1-0.1-0.2-0.1C27.1,18.9,27.2,19,27.3,18.9z"/>
							<path id="XMLID_177_" class="st0" d="M22.4,19.1l-0.1-0.2C22.4,19,22.4,19.1,22.4,19.1z"/>
							<path id="XMLID_176_" class="st0" d="M18.8,25.5c0,0,0,0.1-0.1,0.1C18.7,25.6,18.8,25.5,18.8,25.5z"/>
							<path id="XMLID_175_" class="st0" d="M18.7,25.6c-0.2,0.2-0.3-0.2-0.5,0.1l0-0.1L18,25.7C18.2,25.7,18.5,25.9,18.7,25.6z"/>
						</g>
					</g>
				</g>
			</g>
		</g>
	</g>
</g>
<g id="Warstwa_1">
	<text id="XMLID_20_" transform="matrix(1.4549 0 0 1 13.125 30.7861)" class="st1 st2">J</text>
	<text id="XMLID_19_" transform="matrix(1.185 0 0 1 25.3746 30.7861)" class="st1 st3">c</text>
	<rect id="XMLID_3_" x="5.4" y="10.8" class="st4" width="3.4" height="0.3"/>
	<text id="XMLID_18_" transform="matrix(1 0 0 1 38.0119 30.7864)" class="st1 st5">zardybon</text>
	<path id="XMLID_17_" class="st6" d="M17.1,5.2C1.5,33.1,7.6,39.6,35.5,36.1c25.8-3.2,55.8,0,55.8,0"/>
	<g id="XMLID_10_">
		<g id="XMLID_12_" class="st7">
			<path id="XMLID_16_" class="st8" d="M18.2,21.6"/>
		</g>
	</g>
</g>
</svg>
