<?xml version="1.0" encoding="utf-8"?>
<!-- Generator: Adobe Illustrator 19.0.0, SVG Export Plug-In . SVG Version: 6.00 Build 0)  -->
<svg version="1.1" id="Warstwa_3" xmlns="http://www.w3.org/2000/svg" xmlns:xlink="http://www.w3.org/1999/xlink" x="0px" y="0px"
	 viewBox="0 0 100 100" style="enable-background:new 0 0 100 100;" xml:space="preserve">
<style type="text/css">
	.st0{fill:#FFFFFF;stroke:#070707;stroke-miterlimit:10;}
	.st1{font-family:'Playbill';}
	.st2{font-size:21.0505px;}
</style>
<path class="st0" d="M73.1,23.1c1.2,0.2,2.3,1.2,2.5,2.4c0.2,1.7-0.3,4.5-4.3,8.1L44.9,57.4c0,0-7.5,5.8-10.5,5.3
	c0,0-2.9-0.4,0.8-6.3c0.4-0.7,0.9-1.3,1.5-1.9c2.7-2.8,12.1-12.7,21-21.3c2.9-2.7,5.7-5.4,8.2-7.5C65.9,25.7,69.7,22.6,73.1,23.1z"
	/>
<path class="st0" d="M64.4,39.8l6.7,29.9c0,0,0.8,2.5-2.3,4.9L54.3,48.9L64.4,39.8z"/>
<path class="st0" d="M57.7,33.2l-27.9-8.6c0,0-3.2-2-5.4,1.3l23.7,16.8L57.7,33.2z"/>
<path class="st0" d="M67.3,53.2l2.9-2.5c0.4-0.4,0.5-1,0.1-1.4l-1.2-1.5c-0.3-0.4-0.8-0.5-1.2-0.2l-1.6,0.9L67.3,53.2z"/>
<path class="st0" d="M49.5,30.7l1-1.1c0.4-0.4,0.4-1.1-0.1-1.4L49.2,27c-0.4-0.4-1-0.4-1.4,0l-2.4,2.4L49.5,30.7z"/>
<path class="st0" d="M38.3,52.8l-8.8-0.1c0,0-1.9-0.3-4.5,3.3l8.5,2.8C33.5,58.8,36.6,54.6,38.3,52.8z"/>
<path class="st0" d="M43.6,59.2l-0.3,7.6c0,0.4-0.1,0.8-0.3,1.2c-0.6,1-2,3-4.3,3.6l-1.7-9.4L43.6,59.2z"/>
<text transform="matrix(1.6845 0 0 1 15.812 90.9873)" class="st1 st2">TRAVEL</text>
</svg>
