<?xml version="1.0" encoding="utf-8"?>
<!-- Generator: Adobe Illustrator 19.0.0, SVG Export Plug-In . SVG Version: 6.00 Build 0)  -->
<svg version="1.1" xmlns="http://www.w3.org/2000/svg" xmlns:xlink="http://www.w3.org/1999/xlink" x="0px" y="0px"
	 viewBox="0 0 100 100" style="enable-background:new 0 0 100 100;" xml:space="preserve">
<style type="text/css">
	.st0{fill:#FFFFFF;stroke:#000000;stroke-miterlimit:10;}
	.st1{fill:none;stroke:#000000;stroke-miterlimit:10;}
	.st2{font-family:'Playbill';}
	.st3{font-size:20.3524px;}
</style>
<g id="Warstwa_1">
	<path id="XMLID_41_" class="st0" d="M74.5,49c-0.3,3.6-1.3,6.9-2.9,9.9c0,0,0,0,0,0.1c-4.4,8.3-13.1,13.9-23.1,14c0,0,0,0,0,0h-0.1
		c0,0,0,0,0,0h-0.1c0,0,0,0,0,0c-10.1,0-18.8-5.7-23.2-14c0,0,0,0,0-0.1c-1.6-3-2.9-6.3-2.9-9.8c0,0,0,0,0,0s0,0,0,0
		c0-0.8-0.3-1.5-0.3-2.3c0-3,0.3-5.9,1.3-8.5v0c2-4.4,4.3-8.2,7.7-11.2c4.6-4,10.8-6.5,17.4-6.5c3.3,0,6.4,0.6,9.3,1.7
		c-0.6,1.4-1.1,2.9-1.3,4.5c0,0,0,0,0,0c-0.1,0.8-0.2,1.5-0.2,2.3c0,0,0,0,0,0s0,0,0,0c0,4.5,1.8,8.7,4.6,12.1l0,0
		c2,2.3,4.5,4.3,7.4,5.8l0,0L74.5,49z"/>
	<path id="XMLID_11_" class="st1" d="M68.3,46.8c0.1,1.4-0.1,2.8-0.3,4.1c-0.7,3.8-2.6,7.2-4.9,10.1C57.3,68.5,48.7,72.8,48.3,73
		c0,0,0.1,0,0.1,0c-5.6-3.9-9.2-7.7-12.2-11.4v0c-3-3.3-4-6.5-4.7-9.5c-1-4.1-0.7-8,0.4-11.5c1.4-4.4,3.9-8.3,6.6-11.4
		c4.6-5.3,9.6-8.5,9.9-8.7c0,0,0,0,0,0c3.1,2.1,5.8,4.2,8.1,6.2"/>
	<path id="XMLID_4_" class="st1" d="M48.3,20.4c0,0-16.7,21.4,0,52.6C48.3,73,64.1,52.5,48.3,20.4z"/>
	<path id="XMLID_13_" class="st1" d="M30.7,26.9c0,0,0.2,0,0.4,0c0.1,0,0.1,0,0.1,0c0.2,0,3,1.4,7,2.2v-0.2c0,0,0.3,0,0.3,0
		c1.5,1,3.2,1,5.1,1c0,0,0,0,0,0c2.5,0,5.3,0.1,8.5-0.3c0,0,0,0,0.1-0.1c1.3-0.1,2.6-0.3,4.1-0.6"/>
	<line id="XMLID_19_" class="st1" x1="73.7" y1="37.9" x2="73.7" y2="37.9"/>
	<path id="XMLID_12_" class="st1" d="M23.5,38.1c0,0,3,1.3,8.3,2.4c0,0,0,0,0,0c2.6,0.5,5.7,1,9.2,1.3c4.1,0.3,8.8,0.4,13.9-0.1
		c1.9-0.2,3.9-0.4,5.9-0.7"/>
	<path id="XMLID_6_" class="st1" d="M22.1,49c0,0,20.9,10.6,52.5,0"/>
	<path id="XMLID_7_" class="st1" d="M27.8,63.2"/>
	<path id="XMLID_8_" class="st1" d="M25.1,58.9c0,0,21.8,8.1,46.6,0"/>
	<text id="XMLID_1_" transform="matrix(1.9347 0 0 1 22.1406 89.5957)" class="st2 st3">WWW</text>
</g>
<g id="Warstwa_3">
</g>
<g id="Warstwa_2">
</g>
</svg>
