<?xml version="1.0" encoding="utf-8"?>
<!-- Generator: Adobe Illustrator 19.0.0, SVG Export Plug-In . SVG Version: 6.00 Build 0)  -->
<svg version="1.1" id="Warstwa_1" xmlns="http://www.w3.org/2000/svg" xmlns:xlink="http://www.w3.org/1999/xlink" x="0px" y="0px"
	 viewBox="0 0 100 100" style="enable-background:new 0 0 100 100;" xml:space="preserve">
<style type="text/css">
	.st0{fill:#FFFFFF;stroke:#000000;stroke-miterlimit:10;}
	.st1{fill:none;stroke:#000000;stroke-miterlimit:10;}
	.st2{fill:#FFF5F0;}
	.st3{font-family:'Playbill';}
	.st4{font-size:20.3524px;}
</style>
<g id="Warstwa_1_1_">
	<path id="XMLID_41_" class="st0" d="M74.3,50.5c-0.3,3.6-1.3,6.9-2.9,9.9c0,0,0,0,0,0.1c-4.4,8.3-13.1,13.9-23.1,14l0,0h-0.1l0,0
		h-0.1l0,0c-10.1,0-18.8-5.7-23.2-14c0,0,0,0,0-0.1c-1.6-3-2.9-6.3-2.9-9.8l0,0l0,0c0-0.8-0.3-1.5-0.3-2.3c0-3,0.3-5.9,1.3-8.5l0,0
		c2-4.4,4.3-8.2,7.7-11.2c4.6-4,10.8-6.5,17.4-6.5c3.3,0,6.4,0.6,9.3,1.7c-0.6,1.4-1.1,2.9-1.3,4.5l0,0c-0.1,0.8-0.2,1.5-0.2,2.3
		l0,0l0,0c0,4.5,1.8,8.7,4.6,12.1l0,0c2,2.3,4.5,4.3,7.4,5.8l0,0L74.3,50.5z"/>
	<path id="XMLID_11_" class="st1" d="M68.2,48.3c0.1,1.4-0.1,2.8-0.3,4.1c-0.7,3.8-2.6,7.2-4.9,10.1c-5.8,7.5-14.4,11.8-14.8,12h0.1
		C42.6,70.6,39,66.8,36,63.1l0,0c-3-3.3-4-6.5-4.7-9.5c-1-4.1-0.7-8,0.4-11.5c1.4-4.4,3.9-8.3,6.6-11.4c4.6-5.3,9.6-8.5,9.9-8.7l0,0
		c3.1,2.1,5.8,4.2,8.1,6.2"/>
	<path id="XMLID_4_" class="st1" d="M48.1,21.9c0,0-16.7,21.4,0,52.6C48.1,74.5,63.9,54,48.1,21.9z"/>
	<path id="XMLID_13_" class="st1" d="M30.5,28.4c0,0,0.2,0,0.4,0c0.1,0,0.1,0,0.1,0c0.2,0,3,1.4,7,2.2v-0.2h0.3c1.5,1,3.2,1,5.1,1
		l0,0c2.5,0,5.3,0.1,8.5-0.3c0,0,0,0,0.1-0.1c1.3-0.1,2.6-0.3,4.1-0.6"/>
	<line id="XMLID_19_" class="st1" x1="73.5" y1="39.4" x2="73.5" y2="39.4"/>
	<path id="XMLID_12_" class="st1" d="M23.3,39.6c0,0,3,1.3,8.3,2.4l0,0c2.6,0.5,5.7,1,9.2,1.3c4.1,0.3,8.8,0.4,13.9-0.1
		c1.9-0.2,3.9-0.4,5.9-0.7"/>
	<path id="XMLID_6_" class="st1" d="M21.9,50.5c0,0,20.9,10.6,52.5,0"/>
	<path id="XMLID_7_" class="st1" d="M27.6,64.7"/>
	<path id="XMLID_8_" class="st1" d="M24.9,60.4c0,0,21.8,8.1,46.6,0"/>
	<text id="XMLID_1_" transform="matrix(1.9347 0 0 1 21.9904 91.1194)" class="st2 st3 st4">WWW</text>
</g>
<g id="Warstwa_3">
</g>
<g id="Warstwa_2">
</g>
</svg>
